<svg id="圖層_1" data-name="圖層 1" xmlns="http://www.w3.org/2000/svg" viewBox="0 0 607.94 612"><defs><style>.cls-1{fill:none;stroke:#e5a641;stroke-miterlimit:10;stroke-width:10px;}.cls-2{fill:#e5a641;}</style></defs><circle class="cls-1" cx="303.97" cy="306" r="275.81"/><g id="QjbXvj.tif"><path class="cls-2" d="M477.26,422.43c-1.07,4.34-1.82,8.79-3.24,13-9,26.68-32.53,43.63-60.75,43.83-15.9.12-31.81,0-47.72,0q-85.11,0-170.23,0c-28.57,0-52.2-16.66-61.25-43.52-2-5.89-2.6-12.31-3.3-18.54-.55-4.83,1.85-7.13,6.73-7.18,8.12-.09,16.24,0,24.36,0h3.73c1.25-4.53,2.26-8.91,3.68-13.16,10-30,39.34-50.75,71-50.51a7.61,7.61,0,0,0,4.55-1.54c14.57-12.08,31.28-19.3,50.06-21,25.25-2.22,48.38,3.74,68.19,20.16a11.4,11.4,0,0,0,7.65,2.6c32.24.95,61.43,24.33,69.54,55.65,2,7.76,2,7.76,10.09,7.76,6.43,0,12.86.08,19.29,0,3.49-.06,6.18,1,7.65,4.32Zm-12-.65H142.68c.2,1.51.29,2.83.55,4.11,5.08,24.66,26,41.75,51.55,41.85,30.23.11,60.46,0,90.69,0H412.36c16.78,0,30.74-6.23,41.52-19.15A49.45,49.45,0,0,0,465.25,421.78Zm-205.8-73.12c3.92,1.44,7.44,2.93,11.08,4a7.92,7.92,0,0,0,5-.09,69.86,69.86,0,0,1,24.15-5.88c21.76-1.1,40.14,6.41,55.24,22.07.66.69,1.58,1.66,2.34,1.62,4.06-.21,8.11-.7,12.28-1.11C347.59,331.84,291.63,325.2,259.45,348.66Zm.62,12.64c-41-14-78.48,17.12-81.83,48.71,2.72,0,5.42-.13,8.1,0,2.37.15,3.5-.52,4.22-3a51.8,51.8,0,0,1,58.14-36.89c1.12.17,2.73.18,3.43-.47C254.9,367.05,257.39,364.16,260.07,361.3ZM279,410c-5.59-18.57-22.33-29.95-41.75-28.88-16,.88-32.39,14.17-35.22,28.89,3.07,0,6.07-.14,9.06.05,2.1.13,3.17-.73,4.23-2.47,12.19-20.06,38.66-19.8,50.6.41a3.86,3.86,0,0,0,2.36,1.91C271.69,410.12,275.16,410,279,410Zm55.61-29.11,9.56-6.15c-22.21-23.21-61-21.1-80.32,0l9.54,6.12C290.75,366.37,315.54,365.24,334.58,380.89ZM406,410c-5.12-14.18-14.08-23.55-28.13-27.38-12.93-3.52-24.79-.89-35.5,7.11l5.26,10.37a15.47,15.47,0,0,0,1.41-.91c14.67-11.9,36-6.62,43.85,9.12.35.7,1.21,1.59,1.87,1.62C398.3,410.06,401.86,410,406,410Zm-28.79-51c2.15,4.16,4.14,8.17,6.32,12.08a5.3,5.3,0,0,0,2.51,2c16,6.66,26.48,18.21,31.41,34.83.24.8,1.09,2,1.71,2,3.52.2,7.06.1,10.66.1C426.59,386.44,404.84,362.76,377.21,359Zm-89.6,40.13a5.69,5.69,0,0,0,.9-.44c13.66-12,33.09-4.39,37.26,9.72a2.58,2.58,0,0,0,1.8,1.55c3.34.15,6.69.07,10.56.07-2.73-12.55-9.41-21.27-20.77-26.12-12-5.13-27.6-2.52-35.63,5.67Zm92,10.72c-7.7-8.55-21.18-6-24.3,0Zm-127.16-.07c-6.77-7.28-19.43-7.17-23.88,0Zm60.9,0c-3.56-7.22-15.31-7.3-18.84,0Z"/><path class="cls-2" d="M477.26,178.71c-1.28,6.1-3.2,11.87-7.45,16.71a30.34,30.34,0,0,1-25.53,10.74c-33.67-1.85-67.34-3.89-101-5.88q-31.41-1.86-62.82-3.84a5.76,5.76,0,0,0-5.33,2c-1.52,1.81-3.36,3.34-5,5.07a30.79,30.79,0,0,1-24.18,10c-5.64-.12-11.29,0-16.93-.06-1.86,0-2.73.58-3.44,2.35-1.42,3.55-3.4,6.87-4.81,10.42-4,10-3.67,19.91,1.36,29.42,5.92,11.19,8.47,22.82,5.22,35.23a61.91,61.91,0,0,1-4.77,12.23c-5.22,10.27-6,20.62-1.54,31.3a5.65,5.65,0,0,1,.2,1.16l-10.07,4.81a45.22,45.22,0,0,1-4.46-23.26,48.68,48.68,0,0,1,5.83-19.61q9.34-17.42.1-34.92c-8-15.16-8.19-30.38-.23-45.64.47-.89.83-1.84,1.51-3.4-3.38,0-6.45,0-9.52,0a1.71,1.71,0,0,0-1.28.87c-2.54,6.24-5.59,12.34-7.36,18.8-2.16,7.91-.35,15.69,3.48,22.88,4.94,9.31,7.7,19.11,5.9,29.62a50.33,50.33,0,0,1-4.66,15c-7,13.16-7.32,26,0,39,.61,1.07,1.05,2.22,1.75,3.71l-10.43,4.22c-9.07-15.08-11.29-30.53-4.05-46.86,2.08-4.72,4.36-9.45,5.58-14.42,2-8.07.38-15.93-3.54-23.22-5.84-10.84-8.11-22.24-5-34.28A69.43,69.43,0,0,1,190,215.78c5.52-11.22,5.72-22.37-.14-33.42-6.92-13.06-8.43-26.48-3.16-40.42,1.34-3.54,2.54-7.29,6.25-9.27h58.9c3.06,1.05,6.56,1.48,9.09,3.27,5.11,3.61,9.65,8,14.53,11.95a7,7,0,0,0,4,1.85c22.31-.52,44.62-1.18,66.93-1.84,32.79-1,65.58-2.05,98.37-2.89,10.49-.27,19.34,3.62,26,12,3.69,4.59,5.39,10,6.51,15.65Zm-242.87.13v11.67H205.08c.28,4,.53,7.51.8,11.23.65.08,1.19.19,1.73.2h40.27a17.92,17.92,0,0,0,13.26-5.75c2.6-2.66,5.38-5.16,7.86-7.92a10.23,10.23,0,0,1,9-3.51c18.11,1.2,36.24,2.25,54.37,3.31q56.24,3.31,112.47,6.56c7.69.43,13.94-2.55,18-9.21,3.84-6.29,3.79-12.87.16-19.27-3.89-6.87-10.1-9.76-17.76-9.64-8.8.14-17.59.49-26.38.76-47.36,1.42-94.71,2.89-142.07,4.14-2.28.06-5-1.3-6.85-2.76a68.14,68.14,0,0,1-7.95-7.81,20.35,20.35,0,0,0-16-6.69c-13.43.16-26.85,0-40.27,0-8.65,0-9.19.48-10.23,9.15-.08.67-.12,1.34-.22,2.47h39.16v11.47H195.76c1.74,3.9,3.12,7.31,4.83,10.55.35.66,1.92.94,2.93.95,5.41.09,10.83.05,16.24.05Z"/><path class="cls-2" d="M172.6,132.67c4.41,3.43,4.75,5.07,2.23,10.35-5,10.55-5.2,21.2.22,31.55,5.69,10.87,8.33,22.14,5.55,34.22a55.93,55.93,0,0,1-4.78,12.92c-6.13,11.94-6.24,23.66,0,35.56,7.92,15.05,8,30.24.06,45.3-6.11,11.64-6.3,23.17-.44,35,2.18,4.4,3.71,9.12,5.68,14l-11.27,3.35c-3-10.92-10-20.16-10.24-31.8-.16-8.54,1.2-16.64,5.26-24.14,4.62-8.54,6.73-17.48,4.27-27a63.35,63.35,0,0,0-4.51-11.23c-6.73-14.14-6.78-28.22,0-42.33.67-1.4,1.34-2.79,2.28-4.72h-13V202.15h16.3l-.77-11.72H153.87V178.92h10l-3.7-11.55H154V155.89l5.4-.27,2.24-11.36h-8V132.67Z"/></g></svg>