<svg id="圖層_1" data-name="圖層 1" xmlns="http://www.w3.org/2000/svg" viewBox="0 0 607.94 612"><defs><style>.cls-1{fill:#e5a641;}.cls-2{fill:none;stroke:#e5a641;stroke-miterlimit:10;stroke-width:10px;}</style></defs><g id="ZvjeH8.tif"><path class="cls-1" d="M120.13,359.05v-6.8a10.87,10.87,0,0,0,.77-1.89c2.23-11.29,8.67-19.21,19.26-23.59,2.3-.95,3.2-2,3.21-4.56s-.71-3.89-3.26-5c-9.33-3.91-13.85-11.3-14.17-21.27-.31-9.58,1.26-18.63,8.42-25.68-4.47-6.29-5.25-8.29-5.27-15.59-.05-26.67,6.39-51.62,20.5-74.34,19.07-30.71,47.44-49,81.59-58.47,46.24-12.84,92.92-13,139.51-1.83,26.68,6.37,51,17.89,71.35,36.72,27.25,25.25,40,57,41.4,93.76.28,7.18.43,14.23-5.26,19.61,15.44,19.59,10.36,39.09-11.73,46.27-1,8.1-1,8.1,5.58,11.54a31.31,31.31,0,0,1,12.34,44.1c-2.29,3.74-6.41,6.78-7.48,10.74-1.1,4.11.77,8.93.81,13.44.06,7.6-.16,16-6.1,21s-5.51,10.74-5.5,17c0,3.54,0,7.09,0,10.63a37.39,37.39,0,0,1-8.17,23.2c-9.86,12.43-23.06,19.34-38.5,21-12.2,1.29-24.6,1-36.91,1q-91.83.09-183.66-.07a62.59,62.59,0,0,1-33.1-9.35c-12.44-7.64-21.28-18.05-22.25-33.21-.65-10.3-.14-20.68-.27-31,0-1.62-.19-3.56-1.08-4.77-5.92-8.13-8-17.37-8.51-27.16-.06-1.2-.12-2.9-.87-3.49C125.55,375.36,122,367.72,120.13,359.05ZM306.4,262.84v0q70.77,0,141.54,0c5.1,0,10.22-.09,15.28.4,5.62.53,8.39-1.38,8.41-7,0-17.16-2.65-33.84-9.21-49.78-12.31-29.89-34.55-49.92-63.29-63.32-24.17-11.28-49.83-16.64-76.34-18.22-33.2-2-66,.2-97.64,11.35-40.61,14.3-68.42,41.09-79.87,83.42a126.15,126.15,0,0,0-4.19,36.59c.15,5.56,2.73,7.57,8.07,6.9a60.69,60.69,0,0,1,7.63-.3Q231.6,262.82,306.4,262.84ZM155.17,422.18c0,6.44.09,13.64,0,20.84-.15,10.13,4.07,18.07,11.9,24.2,10.64,8.35,23,11,36.24,11q101.4-.11,202.8-.07a87.13,87.13,0,0,0,13.11-.94c27-4.19,41-25.08,34.4-50.82-4.64-.87-9.3-1.38-13.76-2.64a32.08,32.08,0,0,0-24.27,2.33c-18,9.1-36.26,10-54.74,1.15-8.41-4-17-3.89-25.46,0q-29,13.37-57.84-.15a29.12,29.12,0,0,0-25.44-.06c-20.34,9.25-40.23,8.34-60-2a37.49,37.49,0,0,0-15-3.68C170,420.92,162.79,421.81,155.17,422.18Zm-9.3-34.91c1.79,17.87,9.64,25,25.1,22.57a41.78,41.78,0,0,1,27.45,4.85c15.88,8.73,32.06,9.21,48.51,1.6,11.75-5.43,23.6-5.54,35.32-.09,16.17,7.52,32.22,7.63,48.4.14a39.88,39.88,0,0,1,34.93,0c15.19,7,30.07,6.83,44.89-1,10.4-5.49,21.17-6.37,32.51-3,4,1.17,8.35,1.11,12.56,1.22,3.94.1,6.68-2.19,8.21-5.7,3-6.87,2.29-13.95,1.36-20.57h-9.85q-65.91,0-131.82-.06c-2.92,0-4.6.85-6,3.43-3.28,6.11-6.8,12.09-10.35,18.06-6,10.15-17.89,10.15-23.93,0-3.55-6-7.1-11.92-10.37-18-1.4-2.61-3.06-3.46-6-3.45-32.6.1-65.2.06-97.8.06ZM306,275.73H151.71c-6.42,0-11.06,3-12.57,9.13a43.66,43.66,0,0,0-1,13c.33,5.12,4.47,8.52,10,9.38,5.2.81,6.88-.16,9.9-5.75a26.39,26.39,0,0,1,41.31-7.1c1.79,1.61,3.41,3.41,5.2,5a29.2,29.2,0,0,0,40.32-1.67c13.1-13.84,28-13.83,41.95-.63a34.64,34.64,0,0,0,13.54,8.18c11.72,3.37,21.91-.07,30.4-9.06,11.29-12,27.73-11.89,39.11-.17a49,49,0,0,0,3.67,3.54c12.4,10.37,29.91,9.09,41.27-3,12.12-12.89,29.83-12.35,41.12,1.26a38.29,38.29,0,0,0,3.34,3.84,7.92,7.92,0,0,0,11.72-.43c4.18-4.73,5.43-10.19,3-16.16s-7.38-9.38-13.72-9.38ZM326.6,375a10,10,0,0,0,1.44.35c43.46,0,86.93.1,130.39-.08,10.46,0,18.64-8.93,18.69-19.31a19.49,19.49,0,0,0-19.39-19.61c-35.4-.17-70.79-.08-106.19,0a4.6,4.6,0,0,0-3.45,1.62C340.91,350.08,333.9,362.33,326.6,375Zm127.31-50.89c.7-6.16,1.29-11.77-4.54-15.49-.9-.57-1.43-1.73-2.15-2.61-7.08-8.69-16.34-9-24-.9-17,18-44.29,18-61.15,0-7.36-7.85-15.77-7.9-23.21-.14-17.33,18.08-43.67,18.17-61.15.2-7.8-8-15.87-8-23.49,0-16.92,17.81-44,17.84-60.87.08-8.8-9.25-19.27-7.64-25.75,3.39a27.88,27.88,0,0,1-9.13,9c-2.8,1.75-4,3.1-2.86,6.41ZM244.79,342.3c-4.62,8-8.87,15.47-13.26,22.88-6.13,10.35-18,10.29-24.14-.14-5.09-8.66-10-17.45-15.19-26a6.35,6.35,0,0,0-4.54-2.64c-11.75-.22-23.53-.43-35.27.06a25.26,25.26,0,0,0-11.86,3.73c-7.23,4.53-9.88,13.69-7.25,21.74A19.19,19.19,0,0,0,152,375.29q54.41.1,108.81.06c.79,0,1.57-.16,2.94-.31Zm50.35,63.32c13.74-23.79,26.68-46.22,39.93-69.17h-79.9C268.46,359.44,281.47,382,295.14,405.62ZM204.6,336.46l14.91,25.74c5.36-9.29,10-17.27,14.85-25.74Z"/><path class="cls-1" d="M448.29,234.86c.14,6.11-4,9.9-8.39,7.37a7.54,7.54,0,0,1-3.32-5.32c-1.05-21.87-11.9-38.24-28.45-51.39a88,88,0,0,0-40.75-17.84c-4.49-.76-6.83-3.47-6.19-7s3.53-5.53,7.69-4.76c32,5.88,57.05,21.73,72.32,51.22A67.28,67.28,0,0,1,448.29,234.86Z"/><path class="cls-1" d="M246.74,182.93a6.11,6.11,0,0,1-6.09,5.79,6,6,0,0,1-5.73-6.11,5.75,5.75,0,0,1,6-5.67A5.91,5.91,0,0,1,246.74,182.93Z"/><path class="cls-1" d="M306.34,155.69a5.92,5.92,0,1,1-11.83-.12,5.92,5.92,0,0,1,11.83.12Z"/><path class="cls-1" d="M284,216.14a5.93,5.93,0,1,1,5.76-6A5.84,5.84,0,0,1,284,216.14Z"/><path class="cls-1" d="M252.7,236.84a6,6,0,0,1-5.75,6,5.81,5.81,0,0,1-6.07-5.66,5.74,5.74,0,0,1,5.68-6A5.91,5.91,0,0,1,252.7,236.84Z"/><path class="cls-1" d="M339.59,242.88a5.85,5.85,0,0,1-6-5.78,5.78,5.78,0,0,1,5.84-5.9,5.84,5.84,0,1,1,.14,11.68Z"/><path class="cls-1" d="M200.08,216a6,6,0,0,1-5.7,6.1,5.92,5.92,0,1,1-.36-11.83A6,6,0,0,1,200.08,216Z"/></g><circle class="cls-2" cx="305.1" cy="301.64" r="275.81"/></svg>